<svg width="12" height="12" viewBox="0 0 12 12" fill="none" xmlns="http://www.w3.org/2000/svg">
<path fill-rule="evenodd" clip-rule="evenodd" d="M5.04147 2.29937C5.61019 2.44352 6.05648 2.88981 6.20063 3.45853C6.21445 3.51382 6.28555 3.51382 6.29937 3.45853C6.44352 2.88981 6.88981 2.44352 7.45853 2.29937C7.51382 2.28554 7.51382 2.21446 7.45853 2.20063C6.88981 2.05648 6.44352 1.61019 6.29937 1.04147C6.28555 0.986177 6.21445 0.986177 6.20063 1.04147C6.05648 1.61019 5.61019 2.05648 5.04147 2.20063C4.98618 2.21446 4.98618 2.28554 5.04147 2.29937ZM1.07398 4.8376C2.09657 5.09739 2.90176 5.90294 3.16143 6.92599C3.18559 7.02467 3.3124 7.02467 3.33857 6.92599C3.59824 5.90294 4.40343 5.09739 5.42602 4.8376C5.52466 4.81344 5.52466 4.68656 5.42602 4.66038C4.40142 4.40261 3.59623 3.59706 3.33857 2.57401C3.31441 2.47533 3.1876 2.47533 3.16143 2.57401C2.90176 3.59706 2.09657 4.40261 1.07398 4.6624C0.975341 4.68656 0.975341 4.81344 1.07398 4.8376ZM7.62263 10.8935C7.24925 9.41559 6.0844 8.25269 4.60647 7.87737C4.46451 7.84043 4.46451 7.65763 4.60647 7.62263C6.0844 7.24925 7.24731 6.0844 7.62263 4.60647C7.65763 4.46451 7.84043 4.46451 7.87737 4.60647C8.25075 6.0844 9.41559 7.24731 10.8935 7.62263C11.0355 7.65763 11.0355 7.84043 10.8935 7.87737C9.41559 8.25075 8.25269 9.41559 7.87737 10.8935C7.84237 11.0355 7.65957 11.0355 7.62263 10.8935Z" fill="white"/>
</svg>
