<svg width="102" height="16" viewBox="0 0 102 16" fill="none" xmlns="http://www.w3.org/2000/svg">
<g clip-path="url(#clip0_740_42535)">
<path d="M28.2329 9.94323C28.2329 10.5838 28.1528 11.1649 27.9927 11.6739C27.8364 12.1787 27.6153 12.6114 27.337 12.9593C27.0626 13.3071 26.7309 13.5744 26.3573 13.761C25.9799 13.9476 25.5682 14.041 25.1336 14.041C24.6533 14.041 24.2111 13.9604 23.8223 13.7949C23.4411 13.6337 23.1094 13.3919 22.8425 13.0696C22.5719 12.7472 22.3622 12.3315 22.2135 11.8394C22.0649 11.3388 21.9886 10.745 21.9886 10.0747V1.33203H20.3418V10.1044C20.3418 10.8171 20.4371 11.4661 20.6277 12.0303C20.8183 12.6029 21.108 13.095 21.4854 13.4895C21.8628 13.884 22.3317 14.1852 22.8807 14.3931C23.4258 14.5967 24.0586 14.6985 24.7677 14.6985C25.4234 14.6985 26.0142 14.5839 26.5212 14.3591C27.0321 14.1343 27.4705 13.8034 27.8212 13.3707C28.1719 12.9423 28.4387 12.4163 28.6179 11.8097C28.7933 11.2073 28.881 10.5201 28.881 9.77355V1.33203H28.2291V9.94323H28.2329Z" fill="black"/>
<path d="M62.874 9.94323C62.874 10.5838 62.7939 11.1649 62.6338 11.6739C62.4775 12.1787 62.2564 12.6114 61.9782 12.9593C61.7037 13.3071 61.372 13.5744 60.9984 13.761C60.621 13.9476 60.2093 14.041 59.7747 14.041C59.2944 14.041 58.8522 13.9604 58.4634 13.7949C58.0822 13.6337 57.7505 13.3919 57.4837 13.0696C57.213 12.7472 57.0033 12.3315 56.8547 11.8394C56.706 11.3388 56.6297 10.745 56.6297 10.0747V1.33203H54.9829V10.1044C54.9829 10.8171 55.0782 11.4661 55.2688 12.0303C55.4594 12.6029 55.7491 13.095 56.1265 13.4895C56.5039 13.884 56.9728 14.1852 57.5218 14.3931C58.0669 14.5967 58.6997 14.6985 59.4088 14.6985C60.0645 14.6985 60.6553 14.5839 61.1624 14.3591C61.6732 14.1343 62.1116 13.8034 62.4623 13.3707C62.813 12.9423 63.0799 12.4163 63.259 11.8097C63.4344 11.2073 63.5221 10.5201 63.5221 9.77355V1.33203H62.8702V9.94323H62.874Z" fill="black"/>
<path d="M101.194 1.33203V9.94323C101.194 10.5838 101.114 11.1649 100.954 11.6739C100.798 12.1787 100.577 12.6114 100.298 12.9593C100.024 13.3071 99.6923 13.5744 99.3188 13.761C98.9414 13.9476 98.5296 14.041 98.0951 14.041C97.6147 14.041 97.1725 13.9604 96.7837 13.7949C96.4025 13.6337 96.0708 13.3919 95.804 13.0696C95.5333 12.7472 95.3236 12.3315 95.175 11.8394C95.0263 11.3388 94.9501 10.745 94.9501 10.0747V1.33203H93.3032V10.1044C93.3032 10.8171 93.3985 11.4661 93.5891 12.0303C93.7797 12.6029 94.0695 13.095 94.4469 13.4895C94.8243 13.884 95.2932 14.1852 95.8421 14.3931C96.3872 14.5967 97.02 14.6985 97.7291 14.6985C98.3848 14.6985 98.9757 14.5839 99.4827 14.3591C99.9935 14.1343 100.432 13.8034 100.783 13.3707C101.133 12.9423 101.4 12.4163 101.579 11.8097C101.755 11.2073 101.842 10.5201 101.842 9.77355V1.33203H101.191H101.194Z" fill="black"/>
<path d="M40.7502 12.0557L33.7778 1.33203H32.6113V14.4864H33.2632V3.5421L40.3614 14.4864L41.4021 14.4482V1.33203H40.7502V12.0557Z" fill="black"/>
<path d="M43.6152 1.91318L47.3321 1.92166V14.4864H48.9789V1.92166H52.6805V1.33203H43.6152V1.91318Z" fill="black"/>
<path d="M84.3625 10.4989L84.1262 11.0928L83.9432 10.6898L80.0396 1.33203H78.5186V14.4864H79.1171V3.51664L83.299 13.3665L83.8517 13.3623L87.7058 3.48271V14.4864H89.3526V1.33203H87.9116L84.3625 10.4989Z" fill="black"/>
<path d="M75.5278 1.33203H74.853L69.0243 8.39067V1.33203H67.3774V14.4864H69.0243V9.30693L70.2632 7.6059L73.9343 14.4864H75.9395L71.4412 6.37573L75.5278 1.33203Z" fill="black"/>
<path d="M14.2092 6.92748C13.9843 6.54995 13.6755 6.21907 13.2905 5.95183C13.2409 5.91789 13.1876 5.88396 13.1342 5.85002C13.3362 5.44703 13.4773 5.04405 13.5497 4.64954C13.6374 4.17869 13.6298 3.71631 13.5268 3.27939C13.4239 2.84247 13.2257 2.42251 12.936 2.02801C12.6501 1.63775 12.265 1.27718 11.7961 0.946306C11.3577 0.640884 10.9232 0.441511 10.5 0.356672C10.0731 0.267591 9.65754 0.284559 9.26108 0.407576C8.86843 0.530593 8.49103 0.755417 8.14413 1.07781C8.09838 1.12023 8.05264 1.16689 8.00689 1.21355C7.72479 0.874192 7.42745 0.598464 7.11104 0.403334C6.73745 0.165783 6.34099 0.0300405 5.93691 0.00458868C5.53282 -0.0208631 5.10968 0.0597343 4.68653 0.242139C4.2672 0.424543 3.83643 0.717239 3.40947 1.11598C3.01301 1.48504 2.70804 1.88378 2.50218 2.30374C2.29633 2.72793 2.18197 3.17334 2.16291 3.62723C2.14385 4.08112 2.2239 4.54774 2.39163 5.01435C2.41451 5.07798 2.43738 5.13737 2.46406 5.201C2.08666 5.39189 1.75882 5.6252 1.49197 5.89668C1.17175 6.21907 0.935402 6.60085 0.786729 7.0208C0.638056 7.44076 0.577062 7.91162 0.603747 8.42065C0.630432 8.92121 0.748608 9.46842 0.954463 10.0411C1.14888 10.5756 1.39667 11.021 1.6902 11.3688C1.98755 11.7167 2.33445 11.9754 2.71948 12.1366C3.10069 12.2978 3.52383 12.3572 3.97748 12.3233C4.03847 12.319 4.09946 12.3105 4.16046 12.3021C4.21002 12.7602 4.30532 13.1801 4.4578 13.545C4.63697 13.9819 4.88476 14.3509 5.20117 14.6394C5.51376 14.9236 5.89879 15.1357 6.34099 15.2672C6.77939 15.3944 7.27878 15.4369 7.83535 15.3944C8.34998 15.3563 8.80744 15.2333 9.19627 15.0254C9.58892 14.8175 9.91295 14.5333 10.1684 14.1728C10.4238 13.8164 10.6068 13.388 10.7173 12.9002C10.7326 12.8365 10.7402 12.7687 10.7516 12.7008C11.1595 12.7941 11.5484 12.8153 11.9105 12.7729C12.3413 12.7178 12.7301 12.5693 13.0732 12.3233C13.4163 12.0815 13.7136 11.7379 13.9614 11.3137C14.2054 10.8895 14.3998 10.372 14.5332 9.77384C14.659 9.21814 14.6934 8.69214 14.64 8.22128C14.5828 7.74194 14.4379 7.30926 14.213 6.92748H14.2092ZM9.18865 1.17537C9.486 1.07781 9.78715 1.05235 10.0921 1.10326C10.3933 1.14992 10.6868 1.27294 10.9613 1.46383C11.2663 1.67592 11.514 1.92196 11.7008 2.19344C11.8838 2.46069 12.0058 2.76187 12.063 3.08002C12.1164 3.40241 12.1049 3.75449 12.0211 4.13202C11.9448 4.47986 11.8 4.85316 11.5903 5.23918L11.5484 5.22645C11.0985 5.09919 10.6982 4.81922 10.4009 4.42048L8.34998 1.6632C8.61683 1.42989 8.89893 1.26445 9.18484 1.17113L9.18865 1.17537ZM4.12234 11.7167C3.78306 11.7294 3.47046 11.6785 3.19218 11.5682C2.90246 11.4537 2.64323 11.2755 2.42213 11.0379C2.20103 10.8004 2.02948 10.5119 1.90749 10.1768C1.77407 9.80778 1.70164 9.44721 1.69401 9.09937C1.68639 8.76001 1.74738 8.43762 1.87318 8.14493C1.99898 7.84799 2.19721 7.57226 2.46025 7.32198C2.70804 7.08868 3.02063 6.88506 3.39422 6.7069L3.40185 6.71538C3.69538 7.10564 3.87074 7.59347 3.90123 8.10251L4.12234 11.7167ZM2.95964 4.98042C2.84528 4.62409 2.78809 4.27625 2.79572 3.94538C2.80334 3.60178 2.87577 3.2709 3.01301 2.96548C3.14643 2.66006 3.34085 2.38857 3.59245 2.15527C3.86693 1.90075 4.15283 1.7141 4.44637 1.59957C4.73228 1.48928 5.02581 1.4511 5.31553 1.49352C5.60907 1.53594 5.90641 1.65896 6.19994 1.86257C6.47442 2.05346 6.74889 2.3207 7.01574 2.66006L6.98905 2.71096C6.74127 3.14789 6.3753 3.48724 5.94453 3.67813L2.96345 4.98466L2.95964 4.98042ZM9.82909 13.5068C9.64229 13.7783 9.40975 13.9988 9.13909 14.1558C8.86843 14.317 8.56727 14.4061 8.24324 14.4315C7.8849 14.457 7.55325 14.423 7.25971 14.3255C6.96999 14.2279 6.71077 14.0667 6.49729 13.8419C6.28381 13.6171 6.10845 13.3244 5.97503 12.9638C5.85304 12.6329 5.77299 12.2342 5.73868 11.7845L5.75774 11.776C6.1847 11.5852 6.6574 11.5512 7.10342 11.6742L10.2446 12.5608C10.1493 12.9214 10.0121 13.2395 9.82909 13.5025V13.5068ZM10.3285 10.7495L5.70056 11.2416L3.85168 6.49904L7.33596 3.07577L11.3387 5.70155L10.3285 10.7495ZM13.8394 9.04422C13.7518 9.43024 13.6183 9.7696 13.443 10.0538C13.2714 10.3338 13.0503 10.5544 12.7949 10.7113C12.5357 10.8683 12.2307 10.9658 11.8838 10.9913C11.5636 11.0167 11.1976 10.9786 10.805 10.8768C10.7745 10.3677 10.8889 9.86292 11.1328 9.43024L12.8635 6.35057C13.1418 6.56267 13.3705 6.80446 13.5383 7.08019C13.7136 7.3644 13.828 7.67831 13.8814 8.01342C13.9347 8.34854 13.9195 8.69638 13.8394 9.04846V9.04422Z" fill="black"/>
</g>
<defs>
<clipPath id="clip0_740_42535">
<rect width="101.25" height="16" fill="white" transform="translate(0.599609)"/>
</clipPath>
</defs>
</svg>
