<svg width="20" height="20" viewBox="0 0 20 20" fill="none" xmlns="http://www.w3.org/2000/svg">
<path d="M13.1667 1.84158C12.825 1.49991 12.2333 1.73325 12.2333 2.20825V5.11658C12.2333 6.33325 13.2667 7.34158 14.525 7.34158C15.3167 7.34991 16.4167 7.34991 17.3583 7.34991C17.8333 7.34991 18.0833 6.79158 17.75 6.45825C16.55 5.24991 14.4 3.07491 13.1667 1.84158Z" fill="#25124D"/>
<path d="M17.0833 8.4915H14.675C12.7 8.4915 11.0917 6.88317 11.0917 4.90817V2.49984C11.0917 2.0415 10.7167 1.6665 10.2583 1.6665H6.72501C4.15834 1.6665 2.08334 3.33317 2.08334 6.30817V13.6915C2.08334 16.6665 4.15834 18.3332 6.72501 18.3332H13.275C15.8417 18.3332 17.9167 16.6665 17.9167 13.6915V9.32484C17.9167 8.8665 17.5417 8.4915 17.0833 8.4915ZM9.58334 14.7915H6.25001C5.90834 14.7915 5.62501 14.5082 5.62501 14.1665C5.62501 13.8248 5.90834 13.5415 6.25001 13.5415H9.58334C9.92501 13.5415 10.2083 13.8248 10.2083 14.1665C10.2083 14.5082 9.92501 14.7915 9.58334 14.7915ZM11.25 11.4582H6.25001C5.90834 11.4582 5.62501 11.1748 5.62501 10.8332C5.62501 10.4915 5.90834 10.2082 6.25001 10.2082H11.25C11.5917 10.2082 11.875 10.4915 11.875 10.8332C11.875 11.1748 11.5917 11.4582 11.25 11.4582Z" fill="#25124D"/>
</svg>
