<svg width="20" height="20" viewBox="0 0 20 20" fill="none" xmlns="http://www.w3.org/2000/svg">
<path d="M13.825 6.17484L5.25833 14.7415C4.85833 15.1415 4.175 15.0498 3.93333 14.5415C3.5 13.6498 3.25 12.6415 3.25 11.5832C3.23333 6.98317 7.9 3.04984 9.48333 1.8415C9.79166 1.60817 10.2083 1.60817 10.5083 1.8415C11.2333 2.3915 12.5917 3.53317 13.8667 5.03317C14.15 5.3665 14.1333 5.8665 13.825 6.17484Z" fill="#164564"/>
<path d="M16.75 11.5919C16.75 15.3086 13.725 18.3336 10 18.3336C8.50834 18.3336 7.11667 17.8502 5.99167 17.0169C5.58334 16.7169 5.55001 16.1169 5.90834 15.7586L14.3 7.36689C14.6917 6.97522 15.35 7.05855 15.6167 7.54189C16.3 8.80022 16.7583 10.1669 16.75 11.5919Z" fill="#164564"/>
</svg>
