<svg width="20" height="20" viewBox="0 0 20 20" fill="none" xmlns="http://www.w3.org/2000/svg">
<path d="M9.99999 18.25C8.87286 18.2499 7.77175 17.9112 6.83942 17.2778C5.9071 16.6444 5.18657 15.7455 4.77125 14.6976C4.35594 13.6498 4.26499 12.5014 4.51021 11.4012C4.75542 10.3011 5.32549 9.30001 6.14649 8.52775C7.15299 7.5805 9.62499 5.875 9.24999 2.125C13.75 5.125 16 8.125 11.5 12.625C12.25 12.625 13.375 12.625 15.25 10.7725C15.4525 11.3523 15.625 11.9755 15.625 12.625C15.625 14.1168 15.0324 15.5476 13.9775 16.6025C12.9226 17.6574 11.4918 18.25 9.99999 18.25Z" fill="#51120E"/>
</svg>
