<svg width="20" height="20" viewBox="0 0 20 20" fill="none" xmlns="http://www.w3.org/2000/svg">
<path d="M9.99999 1.6665C5.39999 1.6665 1.66666 5.39984 1.66666 9.99984C1.66666 14.5998 5.39999 18.3332 9.99999 18.3332C14.6 18.3332 18.3333 14.5998 18.3333 9.99984C18.3333 5.39984 14.6 1.6665 9.99999 1.6665ZM10.275 14.1665C10.125 14.2165 9.86666 14.2165 9.71666 14.1665C8.41666 13.7248 5.49999 11.8665 5.49999 8.7165C5.49999 7.32484 6.61666 6.19984 7.99999 6.19984C8.81666 6.19984 9.54166 6.5915 9.99999 7.20817C10.45 6.59984 11.1833 6.19984 12 6.19984C13.3833 6.19984 14.5 7.32484 14.5 8.7165C14.5 11.8665 11.5833 13.7248 10.275 14.1665Z" fill="#4E1745"/>
</svg>
