<svg width="20" height="20" viewBox="0 0 20 20" fill="none" xmlns="http://www.w3.org/2000/svg">
<path d="M17.3833 6.97504L11.6083 2.35837C10.7167 1.6417 9.275 1.6417 8.39166 2.35004L2.61666 6.97504C1.96666 7.4917 1.55 8.58337 1.69166 9.40004L2.8 16.0334C3 17.2167 4.13333 18.175 5.33333 18.175H14.6667C15.8583 18.175 17 17.2084 17.2 16.0334L18.3083 9.40004C18.4417 8.58337 18.025 7.4917 17.3833 6.97504ZM10 12.9167C8.85 12.9167 7.91666 11.9834 7.91666 10.8334C7.91666 9.68337 8.85 8.75004 10 8.75004C11.15 8.75004 12.0833 9.68337 12.0833 10.8334C12.0833 11.9834 11.15 12.9167 10 12.9167Z" fill="#104B38"/>
</svg>
