<svg width="20" height="20" viewBox="0 0 20 20" fill="none" xmlns="http://www.w3.org/2000/svg">
<path d="M12.7167 18.3332C12.6667 18.3332 12.6083 18.3248 12.5583 18.3082C10.8833 17.8332 9.12499 17.8332 7.44999 18.3082C7.14165 18.3915 6.81665 18.2165 6.73332 17.9082C6.64165 17.5998 6.82499 17.2748 7.13332 17.1915C9.01665 16.6582 11 16.6582 12.8833 17.1915C13.1917 17.2832 13.375 17.5998 13.2833 17.9082C13.2 18.1665 12.9667 18.3332 12.7167 18.3332Z" fill="#954214"/>
<path d="M16.0083 5.29977C15.1417 3.54977 13.4667 2.2581 11.525 1.8331C9.49165 1.3831 7.40832 1.86643 5.81665 3.14976C4.21665 4.42476 3.30832 6.3331 3.30832 8.37476C3.30832 10.5331 4.59999 12.7914 6.54999 14.0998V14.7914C6.54165 15.0248 6.53332 15.3831 6.81665 15.6748C7.10832 15.9748 7.54165 16.0081 7.88332 16.0081H12.1583C12.6083 16.0081 12.95 15.8831 13.1833 15.6498C13.5 15.3248 13.4917 14.9081 13.4833 14.6831V14.0998C16.0667 12.3581 17.6917 8.6831 16.0083 5.29977ZM11.4333 9.6831L10.5417 11.2331C10.425 11.4331 10.2167 11.5498 9.99999 11.5498C9.89165 11.5498 9.78332 11.5248 9.69165 11.4664C9.39165 11.2914 9.29165 10.9081 9.45832 10.6164L10.1667 9.3831H9.46665C9.04998 9.3831 8.70832 9.19976 8.52498 8.89143C8.34165 8.57476 8.35832 8.19143 8.56665 7.82477L9.45832 6.27477C9.63332 5.97476 10.0167 5.87476 10.3083 6.04143C10.6083 6.21643 10.7083 6.59977 10.5417 6.89143L9.83332 8.12476H10.5333C10.95 8.12476 11.2917 8.3081 11.475 8.61643C11.6583 8.9331 11.6417 9.32476 11.4333 9.6831Z" fill="#954214"/>
</svg>
