<svg width="20" height="20" viewBox="0 0 20 20" fill="none" xmlns="http://www.w3.org/2000/svg">
<path d="M13.5333 1.6665H6.46666C4.16666 1.6665 3.33333 2.49984 3.33333 4.8415V15.1582C3.33333 17.4998 4.16666 18.3332 6.46666 18.3332H13.525C15.8333 18.3332 16.6667 17.4998 16.6667 15.1582V4.8415C16.6667 2.49984 15.8333 1.6665 13.5333 1.6665ZM9.99999 16.0832C9.19999 16.0832 8.54166 15.4248 8.54166 14.6248C8.54166 13.8248 9.19999 13.1665 9.99999 13.1665C10.8 13.1665 11.4583 13.8248 11.4583 14.6248C11.4583 15.4248 10.8 16.0832 9.99999 16.0832ZM11.6667 5.20817H8.33333C7.99166 5.20817 7.70833 4.92484 7.70833 4.58317C7.70833 4.2415 7.99166 3.95817 8.33333 3.95817H11.6667C12.0083 3.95817 12.2917 4.2415 12.2917 4.58317C12.2917 4.92484 12.0083 5.20817 11.6667 5.20817Z" fill="#6A3C07"/>
</svg>
