<svg width="20" height="20" viewBox="0 0 20 20" fill="none" xmlns="http://www.w3.org/2000/svg">
<path d="M15.9083 10.4917C15.775 10.4917 15.6417 10.45 15.525 10.3583C12.1667 7.76667 7.82502 7.76667 4.46668 10.3583C4.19168 10.5667 3.80001 10.5167 3.59168 10.25C3.38335 9.975 3.43335 9.58333 3.70001 9.375C7.52502 6.41667 12.4667 6.41667 16.2833 9.375C16.5583 9.58333 16.6083 9.975 16.3917 10.25C16.2833 10.4083 16.1 10.4917 15.9083 10.4917Z" fill="#162664"/>
<path d="M18.3333 7.59167C18.2 7.59167 18.0667 7.55 17.95 7.45833C13.1167 3.725 6.87501 3.725 2.05001 7.45833C1.77501 7.66667 1.38334 7.61667 1.17501 7.35C0.958339 7.08333 1.00834 6.68333 1.28334 6.475C6.57501 2.38333 13.4167 2.38333 18.7167 6.475C18.9917 6.68333 19.0417 7.075 18.825 7.35C18.7083 7.50833 18.5167 7.59167 18.3333 7.59167Z" fill="#162664"/>
<path d="M14.3417 13.5336C14.2083 13.5336 14.075 13.4919 13.9583 13.4002C11.5583 11.5419 8.45 11.5419 6.04166 13.4002C5.76666 13.6086 5.375 13.5586 5.16666 13.2919C4.95833 13.0169 5.00833 12.6252 5.275 12.4169C8.14166 10.2002 11.85 10.2002 14.7167 12.4169C14.9917 12.6252 15.0417 13.0169 14.825 13.2919C14.7083 13.4502 14.525 13.5336 14.3417 13.5336Z" fill="#162664"/>
<path d="M12.1667 16.5836C12.0333 16.5836 11.9 16.5419 11.7833 16.4502C10.7 15.6086 9.29165 15.6086 8.20832 16.4502C7.93332 16.6586 7.54165 16.6086 7.33332 16.3419C7.12499 16.0669 7.17499 15.6752 7.44165 15.4669C8.99165 14.2669 10.9917 14.2669 12.5417 15.4669C12.8167 15.6752 12.8667 16.0669 12.65 16.3419C12.5417 16.4919 12.3583 16.5836 12.1667 16.5836Z" fill="#162664"/>
</svg>
